<svg width="811" height="596" viewBox="0 0 811 596" fill="none" xmlns="http://www.w3.org/2000/svg">
<g id="undraw_designer_life_re_6ywf">
<g id="table">
<path id="Vector" d="M707.724 370.361C707.724 365.001 705.924 360.651 703.714 360.641H101.224C99.0036 360.651 97.2136 365.001 97.2036 370.361V591.004C97.2037 591.502 97.0185 591.981 96.6842 592.35C96.3498 592.718 95.8902 592.949 95.3949 592.998C93.7778 593.153 92.1607 593.297 90.5436 593.431C90.5036 593.431 90.4636 593.441 90.4236 593.441C89.5436 593.521 88.6636 593.581 87.7836 593.651H87.7736C87.321 592.814 86.8735 591.97 86.4314 591.118C86.2818 590.831 86.2037 590.513 86.2036 590.189V357.751C86.2036 356.271 86.2636 354.781 86.3636 353.311C86.5064 351.292 86.7567 349.283 87.1136 347.291C88.8036 338.001 92.6236 331.711 96.9636 331.691H707.964C708.597 331.695 709.223 331.828 709.804 332.081C710.656 332.458 711.427 332.998 712.074 333.671C712.951 334.583 713.701 335.609 714.304 336.721C716.444 340.491 717.974 346.111 718.514 352.651C718.514 352.711 718.524 352.771 718.524 352.831C718.664 354.451 718.734 356.101 718.724 357.751L718.864 379.181L718.954 391.961L719.224 432.061L719.324 446.301L719.764 592.501C719.764 593.031 719.553 593.54 719.178 593.915C718.803 594.29 718.294 594.501 717.764 594.501H709.724C709.193 594.501 708.684 594.29 708.309 593.915C707.934 593.54 707.724 593.031 707.724 592.501V370.361Z" fill="#E6E6E6"/>
<path id="Vector_2" d="M544.008 231.415H479.088C478.17 231.416 477.29 231.783 476.641 232.433C475.993 233.083 475.629 233.964 475.63 234.883V337.436H547.475V234.883C547.476 234.427 547.386 233.976 547.212 233.555C547.038 233.134 546.782 232.752 546.46 232.43C546.138 232.108 545.756 231.853 545.335 231.678C544.914 231.504 544.463 231.415 544.008 231.415ZM511.766 289.685C509.736 289.675 507.792 288.865 506.356 287.429C504.921 285.993 504.11 284.049 504.101 282.019V270.19C504.103 268.159 504.912 266.211 506.349 264.775C507.786 263.339 509.735 262.533 511.766 262.533C513.798 262.533 515.747 263.339 517.184 264.775C518.621 266.211 519.43 268.159 519.432 270.19V282.019C519.423 284.049 518.612 285.993 517.177 287.429C515.741 288.865 513.797 289.675 511.766 289.685Z" fill="#2F2E41"/>
<path id="Vector_3" d="M475.407 334.156V344.05C475.408 344.563 475.612 345.054 475.975 345.417C476.337 345.779 476.829 345.983 477.341 345.984H545.764C546.276 345.982 546.766 345.777 547.129 345.415C547.491 345.053 547.696 344.562 547.698 344.05V334.156H475.407Z" fill="#3F3D56"/>
<path id="Vector_4" d="M181.208 226.193L182.208 245.193C182.208 245.193 179.256 262.023 181.684 265.655C184.093 269.269 250.252 274.645 250.252 274.645C250.252 274.645 248.178 246.309 251.919 225.812L181.208 226.193Z" fill="#FFB6B6"/>
</g>
<g id="hand">
<path id="Vector_5" d="M392.499 90.4113C391.719 92.2789 390.539 93.9528 389.042 95.3151C387.546 96.6774 385.768 97.6949 383.836 98.296C381.903 98.8971 379.862 99.0671 377.857 98.794C375.851 98.521 373.93 97.8116 372.228 96.7157L279.49 158.946L277.404 133.465L368.511 76.6703C370.542 73.9337 373.506 72.037 376.841 71.3395C380.176 70.6421 383.652 71.1924 386.609 72.8861C389.565 74.5799 391.798 77.2994 392.884 80.5294C393.97 83.7594 393.833 87.2755 392.499 90.4113Z" fill="#FFB6B6"/>
<path id="Vector_6" d="M186.656 127.076C186.656 127.076 176.479 141.562 191.821 154.806C207.163 168.051 270.309 166.571 280.494 166.638C290.678 166.704 338.243 119.188 338.243 119.188L338.425 91.2694L281.431 123.756L186.656 127.076Z" fill="#C3D6DC"/>
</g>
<g id="leg">
<path id="Vector_7" d="M380.968 471.232L393.766 465.505L377.737 412.21L358.847 420.662L380.968 471.232Z" fill="#FFB6B6"/>
<path id="Vector_8" d="M371.801 456.764L390.946 443.244L396.23 451.762L423.23 453.09C424.564 453.156 425.841 453.646 426.877 454.489C427.912 455.332 428.651 456.484 428.985 457.776C429.319 459.069 429.232 460.435 428.735 461.674C428.238 462.913 427.358 463.961 426.224 464.665L402.554 479.348L393.248 473.453L396.882 482.867L387.957 488.403L371.801 456.764Z" fill="#2F2E41"/>
<path id="Vector_9" d="M386.251 419.641L360.785 441.934L310.871 339.853C261.376 348.366 214.681 351.093 174.293 340.795C160.618 337.357 152.259 323.237 155.623 309.257C155.78 308.604 155.962 307.958 156.168 307.318C161.002 292.57 173.655 282.135 183.624 265.914L256.441 267.02L248.307 295.082L319.044 285.929C333.269 284.088 346.261 294.385 348.062 308.927C348.157 309.695 348.219 310.466 348.248 311.24L386.251 419.641Z" fill="#2F2E41"/>
</g>
<g id="girl">
<path id="Vector_10" d="M192.306 109.004L219.417 112.193C220.56 112.328 221.633 112.816 222.486 113.589C223.339 114.362 223.929 115.382 224.175 116.507L228.486 136.236L255.363 167.886C255.363 167.886 265.014 185.982 261.395 206.491C259.217 218.841 255.449 230.856 250.185 242.238C250.185 242.238 184.089 269.27 181.676 265.651C179.264 262.032 178.481 245.593 178.481 245.593L169.977 150.991C169.49 146.006 170.113 140.976 171.799 136.26C173.486 131.544 176.195 127.26 179.733 123.715C181.878 121.605 183.996 120.128 185.719 120.128C189.612 119.996 189.113 111.235 192.306 109.004Z" fill="#C3D6DC"/>
<path id="Vector_11" d="M250.479 510.874L263.06 517.036L293.347 470.36L274.778 461.265L250.479 510.874Z" fill="#FFB6B6"/>
<path id="Vector_12" d="M283.617 500.324L257.77 490.511L293.244 383.966C245.05 369.836 208.698 347.076 176.958 320.061C166.19 310.957 158.115 299.266 167.285 288.192C167.714 287.674 168.162 287.173 168.628 286.69C179.457 275.572 206.94 277.711 223.028 267.53L259.01 305.946L256.755 316.236L324.306 339.135C337.891 343.74 345.028 358.702 340.247 372.554C339.995 373.285 339.711 374.005 339.397 374.713L283.617 500.324Z" fill="#2F2E41"/>
<path id="Vector_13" d="M250.05 503.437L271.675 512.476L267.265 521.477L280.482 545.058C281.135 546.223 281.398 547.566 281.234 548.891C281.07 550.216 280.486 551.453 279.569 552.423C278.651 553.393 277.448 554.044 276.134 554.282C274.82 554.519 273.465 554.33 272.266 553.743L247.252 541.489L247.302 530.473L241.257 538.553L231.826 533.932L250.05 503.437Z" fill="#2F2E41"/>
<path id="Vector_14" d="M207.763 340.301C206.067 339.197 204.634 337.733 203.565 336.015C202.496 334.296 201.817 332.364 201.576 330.354C201.334 328.345 201.536 326.307 202.167 324.384C202.798 322.461 203.844 320.7 205.229 319.224L160.8 216.76L186.238 219.318L225.616 319.195C227.941 321.687 229.27 324.945 229.353 328.351C229.435 331.758 228.265 335.076 226.065 337.678C223.864 340.28 220.785 341.984 217.412 342.467C214.039 342.951 210.606 342.18 207.763 340.301V340.301Z" fill="#FFB6B6"/>
<path id="Vector_15" d="M208.936 131.222C208.936 131.222 196.53 118.592 180.729 131.285C164.928 143.978 154.961 206.35 153.054 216.355C151.146 226.36 189.275 281.735 189.275 281.735L216.7 286.963L195.059 225.034L208.936 131.222Z" fill="#C3D6DC"/>
<path id="Vector_16" d="M651.508 71.3687H374.003C371.619 71.3724 369.334 72.3212 367.648 74.0071C365.962 75.693 365.013 77.9785 365.009 80.3627V267.624C365.012 270.009 365.96 272.295 367.646 273.981C369.332 275.668 371.619 276.616 374.003 276.618H651.508C653.893 276.616 656.179 275.668 657.865 273.981C659.552 272.295 660.5 270.009 660.502 267.624V80.3627C660.499 77.9785 659.55 75.693 657.864 74.0071C656.178 72.3212 653.892 71.3724 651.508 71.3687Z" fill="#3F3D56"/>
<path id="Vector_17" d="M649.192 77.8652H376.322C375.045 77.868 373.822 78.377 372.92 79.2807C372.019 80.1843 371.512 81.4087 371.512 82.6852V265.305C371.514 266.58 372.022 267.802 372.923 268.704C373.825 269.606 375.047 270.113 376.322 270.115H649.192C650.467 270.113 651.689 269.606 652.591 268.704C653.492 267.802 654 266.58 654.002 265.305V82.6852C654.002 81.4087 653.495 80.1843 652.594 79.2807C651.692 78.377 650.469 77.868 649.192 77.8652Z" fill="white"/>
<path id="Vector_18" d="M596.042 349.427H433.699C433.254 349.427 432.816 349.328 432.414 349.137C432.013 348.946 431.66 348.668 431.38 348.323C431.1 347.977 430.9 347.574 430.796 347.142C430.692 346.71 430.685 346.261 430.776 345.826L433.295 333.862C433.439 333.193 433.807 332.592 434.338 332.161C434.87 331.73 435.533 331.493 436.217 331.491H593.523C594.208 331.493 594.871 331.73 595.402 332.161C595.934 332.592 596.302 333.193 596.445 333.862L598.964 345.826C599.055 346.261 599.049 346.71 598.944 347.142C598.84 347.574 598.641 347.977 598.361 348.323C598.081 348.668 597.727 348.946 597.326 349.137C596.925 349.328 596.486 349.427 596.042 349.427H596.042Z" fill="#2F2E41"/>
<path id="Vector_19" d="M441.882 333.645H437.858C437.589 333.645 437.37 333.864 437.37 334.133V336.157C437.37 336.426 437.589 336.645 437.858 336.645H441.882C442.152 336.645 442.37 336.426 442.37 336.157V334.133C442.37 333.864 442.152 333.645 441.882 333.645Z" fill="#3F3D56"/>
<path id="Vector_20" d="M451.882 333.645H447.858C447.589 333.645 447.37 333.864 447.37 334.133V336.157C447.37 336.426 447.589 336.645 447.858 336.645H451.882C452.152 336.645 452.37 336.426 452.37 336.157V334.133C452.37 333.864 452.152 333.645 451.882 333.645Z" fill="#3F3D56"/>
<path id="Vector_21" d="M461.882 333.645H457.858C457.589 333.645 457.37 333.864 457.37 334.133V336.157C457.37 336.426 457.589 336.645 457.858 336.645H461.882C462.152 336.645 462.37 336.426 462.37 336.157V334.133C462.37 333.864 462.152 333.645 461.882 333.645Z" fill="#3F3D56"/>
<path id="Vector_22" d="M471.882 333.645H467.858C467.589 333.645 467.37 333.864 467.37 334.133V336.157C467.37 336.426 467.589 336.645 467.858 336.645H471.882C472.152 336.645 472.37 336.426 472.37 336.157V334.133C472.37 333.864 472.152 333.645 471.882 333.645Z" fill="#3F3D56"/>
<path id="Vector_23" d="M481.882 333.645H477.858C477.589 333.645 477.37 333.864 477.37 334.133V336.157C477.37 336.426 477.589 336.645 477.858 336.645H481.882C482.152 336.645 482.37 336.426 482.37 336.157V334.133C482.37 333.864 482.152 333.645 481.882 333.645Z" fill="#3F3D56"/>
<path id="Vector_24" d="M491.882 333.645H487.858C487.589 333.645 487.37 333.864 487.37 334.133V336.157C487.37 336.426 487.589 336.645 487.858 336.645H491.882C492.152 336.645 492.37 336.426 492.37 336.157V334.133C492.37 333.864 492.152 333.645 491.882 333.645Z" fill="#3F3D56"/>
<path id="Vector_25" d="M501.882 333.645H497.858C497.589 333.645 497.37 333.864 497.37 334.133V336.157C497.37 336.426 497.589 336.645 497.858 336.645H501.882C502.152 336.645 502.37 336.426 502.37 336.157V334.133C502.37 333.864 502.152 333.645 501.882 333.645Z" fill="#3F3D56"/>
<path id="Vector_26" d="M511.882 333.645H507.858C507.589 333.645 507.37 333.864 507.37 334.133V336.157C507.37 336.426 507.589 336.645 507.858 336.645H511.882C512.152 336.645 512.37 336.426 512.37 336.157V334.133C512.37 333.864 512.152 333.645 511.882 333.645Z" fill="#3F3D56"/>
<path id="Vector_27" d="M521.882 333.645H517.858C517.589 333.645 517.37 333.864 517.37 334.133V336.157C517.37 336.426 517.589 336.645 517.858 336.645H521.882C522.152 336.645 522.37 336.426 522.37 336.157V334.133C522.37 333.864 522.152 333.645 521.882 333.645Z" fill="#3F3D56"/>
<path id="Vector_28" d="M531.882 333.645H527.858C527.589 333.645 527.37 333.864 527.37 334.133V336.157C527.37 336.426 527.589 336.645 527.858 336.645H531.882C532.152 336.645 532.37 336.426 532.37 336.157V334.133C532.37 333.864 532.152 333.645 531.882 333.645Z" fill="#3F3D56"/>
<path id="Vector_29" d="M541.882 333.645H537.858C537.589 333.645 537.37 333.864 537.37 334.133V336.157C537.37 336.426 537.589 336.645 537.858 336.645H541.882C542.152 336.645 542.37 336.426 542.37 336.157V334.133C542.37 333.864 542.152 333.645 541.882 333.645Z" fill="#3F3D56"/>
<path id="Vector_30" d="M551.882 333.645H547.858C547.589 333.645 547.37 333.864 547.37 334.133V336.157C547.37 336.426 547.589 336.645 547.858 336.645H551.882C552.152 336.645 552.37 336.426 552.37 336.157V334.133C552.37 333.864 552.152 333.645 551.882 333.645Z" fill="#3F3D56"/>
<path id="Vector_31" d="M561.882 333.645H557.858C557.589 333.645 557.37 333.864 557.37 334.133V336.157C557.37 336.426 557.589 336.645 557.858 336.645H561.882C562.152 336.645 562.37 336.426 562.37 336.157V334.133C562.37 333.864 562.152 333.645 561.882 333.645Z" fill="#3F3D56"/>
<path id="Vector_32" d="M571.882 333.645H567.858C567.589 333.645 567.37 333.864 567.37 334.133V336.157C567.37 336.426 567.589 336.645 567.858 336.645H571.882C572.152 336.645 572.37 336.426 572.37 336.157V334.133C572.37 333.864 572.152 333.645 571.882 333.645Z" fill="#3F3D56"/>
<path id="Vector_33" d="M581.882 333.645H577.858C577.589 333.645 577.37 333.864 577.37 334.133V336.157C577.37 336.426 577.589 336.645 577.858 336.645H581.882C582.152 336.645 582.37 336.426 582.37 336.157V334.133C582.37 333.864 582.152 333.645 581.882 333.645Z" fill="#3F3D56"/>
<path id="Vector_34" d="M591.882 333.645H587.858C587.589 333.645 587.37 333.864 587.37 334.133V336.157C587.37 336.426 587.589 336.645 587.858 336.645H591.882C592.152 336.645 592.37 336.426 592.37 336.157V334.133C592.37 333.864 592.152 333.645 591.882 333.645Z" fill="#3F3D56"/>
<path id="Vector_35" d="M441.764 338.645H437.74C437.471 338.645 437.252 338.864 437.252 339.133V341.157C437.252 341.426 437.471 341.645 437.74 341.645H441.764C442.033 341.645 442.252 341.426 442.252 341.157V339.133C442.252 338.864 442.033 338.645 441.764 338.645Z" fill="#3F3D56"/>
<path id="Vector_36" d="M451.764 338.645H447.74C447.471 338.645 447.252 338.864 447.252 339.133V341.157C447.252 341.426 447.471 341.645 447.74 341.645H451.764C452.033 341.645 452.252 341.426 452.252 341.157V339.133C452.252 338.864 452.033 338.645 451.764 338.645Z" fill="#3F3D56"/>
<path id="Vector_37" d="M461.764 338.645H457.74C457.471 338.645 457.252 338.864 457.252 339.133V341.157C457.252 341.426 457.471 341.645 457.74 341.645H461.764C462.033 341.645 462.252 341.426 462.252 341.157V339.133C462.252 338.864 462.033 338.645 461.764 338.645Z" fill="#3F3D56"/>
<path id="Vector_38" d="M471.764 338.645H467.74C467.471 338.645 467.252 338.864 467.252 339.133V341.157C467.252 341.426 467.471 341.645 467.74 341.645H471.764C472.033 341.645 472.252 341.426 472.252 341.157V339.133C472.252 338.864 472.033 338.645 471.764 338.645Z" fill="#3F3D56"/>
<path id="Vector_39" d="M481.764 338.645H477.74C477.471 338.645 477.252 338.864 477.252 339.133V341.157C477.252 341.426 477.471 341.645 477.74 341.645H481.764C482.033 341.645 482.252 341.426 482.252 341.157V339.133C482.252 338.864 482.033 338.645 481.764 338.645Z" fill="#3F3D56"/>
<path id="Vector_40" d="M491.764 338.645H487.74C487.471 338.645 487.252 338.864 487.252 339.133V341.157C487.252 341.426 487.471 341.645 487.74 341.645H491.764C492.033 341.645 492.252 341.426 492.252 341.157V339.133C492.252 338.864 492.033 338.645 491.764 338.645Z" fill="#3F3D56"/>
<path id="Vector_41" d="M501.764 338.645H497.74C497.471 338.645 497.252 338.864 497.252 339.133V341.157C497.252 341.426 497.471 341.645 497.74 341.645H501.764C502.033 341.645 502.252 341.426 502.252 341.157V339.133C502.252 338.864 502.033 338.645 501.764 338.645Z" fill="#3F3D56"/>
<path id="Vector_42" d="M511.764 338.645H507.74C507.471 338.645 507.252 338.864 507.252 339.133V341.157C507.252 341.426 507.471 341.645 507.74 341.645H511.764C512.033 341.645 512.252 341.426 512.252 341.157V339.133C512.252 338.864 512.033 338.645 511.764 338.645Z" fill="#3F3D56"/>
<path id="Vector_43" d="M521.764 338.645H517.74C517.47 338.645 517.252 338.864 517.252 339.133V341.157C517.252 341.426 517.47 341.645 517.74 341.645H521.764C522.033 341.645 522.252 341.426 522.252 341.157V339.133C522.252 338.864 522.033 338.645 521.764 338.645Z" fill="#3F3D56"/>
<path id="Vector_44" d="M531.764 338.645H527.74C527.47 338.645 527.252 338.864 527.252 339.133V341.157C527.252 341.426 527.47 341.645 527.74 341.645H531.764C532.033 341.645 532.252 341.426 532.252 341.157V339.133C532.252 338.864 532.033 338.645 531.764 338.645Z" fill="#3F3D56"/>
<path id="Vector_45" d="M541.764 338.645H537.74C537.47 338.645 537.252 338.864 537.252 339.133V341.157C537.252 341.426 537.47 341.645 537.74 341.645H541.764C542.033 341.645 542.252 341.426 542.252 341.157V339.133C542.252 338.864 542.033 338.645 541.764 338.645Z" fill="#3F3D56"/>
<path id="Vector_46" d="M551.764 338.645H547.74C547.47 338.645 547.252 338.864 547.252 339.133V341.157C547.252 341.426 547.47 341.645 547.74 341.645H551.764C552.033 341.645 552.252 341.426 552.252 341.157V339.133C552.252 338.864 552.033 338.645 551.764 338.645Z" fill="#3F3D56"/>
<path id="Vector_47" d="M561.764 338.645H557.74C557.47 338.645 557.252 338.864 557.252 339.133V341.157C557.252 341.426 557.47 341.645 557.74 341.645H561.764C562.033 341.645 562.252 341.426 562.252 341.157V339.133C562.252 338.864 562.033 338.645 561.764 338.645Z" fill="#3F3D56"/>
<path id="Vector_48" d="M571.764 338.645H567.74C567.47 338.645 567.252 338.864 567.252 339.133V341.157C567.252 341.426 567.47 341.645 567.74 341.645H571.764C572.033 341.645 572.252 341.426 572.252 341.157V339.133C572.252 338.864 572.033 338.645 571.764 338.645Z" fill="#3F3D56"/>
<path id="Vector_49" d="M581.764 338.645H577.74C577.47 338.645 577.252 338.864 577.252 339.133V341.157C577.252 341.426 577.47 341.645 577.74 341.645H581.764C582.033 341.645 582.252 341.426 582.252 341.157V339.133C582.252 338.864 582.033 338.645 581.764 338.645Z" fill="#3F3D56"/>
<path id="Vector_50" d="M591.764 338.645H587.74C587.47 338.645 587.252 338.864 587.252 339.133V341.157C587.252 341.426 587.47 341.645 587.74 341.645H591.764C592.033 341.645 592.252 341.426 592.252 341.157V339.133C592.252 338.864 592.033 338.645 591.764 338.645Z" fill="#3F3D56"/>
<path id="Vector_51" d="M524.764 344.645H485.74C485.471 344.645 485.252 344.864 485.252 345.133V347.157C485.252 347.426 485.471 347.645 485.74 347.645H524.764C525.033 347.645 525.252 347.426 525.252 347.157V345.133C525.252 344.864 525.033 344.645 524.764 344.645Z" fill="#3F3D56"/>
<path id="Vector_52" d="M654.002 82.6852V265.305C654 266.58 653.492 267.802 652.591 268.704C651.689 269.606 650.467 270.113 649.192 270.115H552.972C542.328 260.244 533.595 248.494 527.212 235.455C526.792 234.615 526.392 233.765 526.012 232.905C520.196 220.285 516.675 206.73 515.612 192.875C515.542 192.025 515.482 191.175 515.442 190.315C515.312 188.115 515.252 185.885 515.252 183.645C515.233 168.748 518.046 153.982 523.542 140.135C523.872 139.275 524.222 138.425 524.582 137.575C535.642 111.588 555.628 90.4106 580.932 77.8652H649.192C650.469 77.868 651.692 78.377 652.594 79.2807C653.495 80.1843 654.002 81.4087 654.002 82.6852Z" fill="#C3D6DC"/>
<path id="Vector_53" d="M635.475 103.026H380.152C379.887 103.02 379.634 102.91 379.448 102.721C379.263 102.531 379.159 102.276 379.159 102.01C379.159 101.745 379.263 101.49 379.448 101.3C379.634 101.11 379.887 101.001 380.152 100.995H635.475C635.741 101.001 635.993 101.11 636.179 101.3C636.365 101.49 636.469 101.745 636.469 102.01C636.469 102.276 636.365 102.531 636.179 102.721C635.993 102.91 635.741 103.02 635.475 103.026Z" fill="#CACACA"/>
<path id="Vector_54" d="M397.532 95.8111C400.818 95.8111 403.482 93.0876 403.482 89.7281C403.482 86.3685 400.818 83.645 397.532 83.645C394.246 83.645 391.582 86.3685 391.582 89.7281C391.582 93.0876 394.246 95.8111 397.532 95.8111Z" fill="#3F3D56"/>
<path id="Vector_55" d="M418.088 95.8111C421.374 95.8111 424.039 93.0876 424.039 89.7281C424.039 86.3685 421.374 83.645 418.088 83.645C414.802 83.645 412.138 86.3685 412.138 89.7281C412.138 93.0876 414.802 95.8111 418.088 95.8111Z" fill="#3F3D56"/>
<path id="Vector_56" d="M438.644 95.8111C441.93 95.8111 444.594 93.0876 444.594 89.7281C444.594 86.3685 441.93 83.645 438.644 83.645C435.358 83.645 432.694 86.3685 432.694 89.7281C432.694 93.0876 435.358 95.8111 438.644 95.8111Z" fill="#3F3D56"/>
<path id="Vector_57" d="M623.099 85.1528H608.497C608.207 85.1585 607.932 85.2775 607.729 85.4843C607.526 85.691 607.413 85.969 607.413 86.2585C607.413 86.548 607.526 86.8259 607.729 87.0327C607.932 87.2394 608.207 87.3584 608.497 87.3641H623.099C623.388 87.3584 623.664 87.2394 623.867 87.0327C624.069 86.8259 624.183 86.548 624.183 86.2585C624.183 85.969 624.069 85.691 623.867 85.4843C623.664 85.2775 623.388 85.1585 623.099 85.1528Z" fill="#3F3D56"/>
<path id="Vector_58" d="M623.099 89.3032H608.497C608.207 89.3089 607.932 89.4279 607.729 89.6347C607.526 89.8414 607.413 90.1193 607.413 90.4088C607.413 90.6984 607.526 90.9763 607.729 91.183C607.932 91.3898 608.207 91.5088 608.497 91.5145H623.099C623.388 91.5088 623.664 91.3898 623.867 91.183C624.069 90.9763 624.183 90.6984 624.183 90.4088C624.183 90.1193 624.069 89.8414 623.867 89.6347C623.664 89.4279 623.388 89.3089 623.099 89.3032Z" fill="#3F3D56"/>
<path id="Vector_59" d="M623.099 93.4478H608.497C608.207 93.4535 607.932 93.5725 607.729 93.7792C607.526 93.9859 607.413 94.2639 607.413 94.5534C607.413 94.8429 607.526 95.1209 607.729 95.3276C607.932 95.5343 608.207 95.6533 608.497 95.659H623.099C623.388 95.6533 623.664 95.5343 623.867 95.3276C624.069 95.1209 624.183 94.8429 624.183 94.5534C624.183 94.2639 624.069 93.9859 623.867 93.7792C623.664 93.5725 623.388 93.4535 623.099 93.4478Z" fill="#3F3D56"/>
<path id="Vector_60" opacity="0.2" d="M654.252 140.135V137.575H611.342V107.905H608.792V137.575H559.612V107.905H557.062V137.575H524.582C524.222 138.425 523.872 139.275 523.542 140.135H557.062V190.315H515.442C515.482 191.175 515.542 192.025 515.612 192.875H557.062V232.905H526.012C526.392 233.765 526.792 234.615 527.212 235.455H557.062V269.105H559.612V235.455H608.792V269.105H611.342V235.455H654.252V232.905H611.342V192.875H654.252V190.315H611.342V140.135H654.252ZM608.792 232.905H559.612V192.875H608.792V232.905ZM608.792 190.315H559.612V140.135H608.792V190.315Z" fill="black"/>
</g>
<path id="circle" d="M406.252 259.645C406.258 263.22 405.621 266.766 404.372 270.115H376.322C375.047 270.113 373.825 269.605 372.923 268.704C372.022 267.802 371.514 266.58 371.512 265.305V230.025C373.079 229.772 374.664 229.644 376.252 229.645C380.192 229.645 384.093 230.421 387.733 231.928C391.373 233.436 394.68 235.645 397.466 238.431C400.252 241.217 402.461 244.524 403.969 248.164C405.476 251.804 406.252 255.705 406.252 259.645Z" fill="#C3D6DC"/>
<g id="lines">
<path id="line1" d="M456.428 162.344H424.524C422.128 162.344 420.185 164.286 420.185 166.683V166.683C420.185 169.079 422.128 171.022 424.524 171.022H456.428C458.825 171.022 460.767 169.079 460.767 166.683C460.767 164.286 458.825 162.344 456.428 162.344Z" fill="#C3D6DC"/>
<path id="line2" d="M477.038 179.7H403.914C401.518 179.7 399.575 181.642 399.575 184.039C399.575 186.435 401.518 188.378 403.914 188.378H477.038C479.435 188.378 481.377 186.435 481.377 184.039C481.377 181.642 479.435 179.7 477.038 179.7Z" fill="#E6E6E6"/>
<path id="line3" d="M477.038 197.056H403.914C401.518 197.056 399.575 198.998 399.575 201.395V201.395C399.575 203.791 401.518 205.734 403.914 205.734H477.038C479.435 205.734 481.377 203.791 481.377 201.395C481.377 198.998 479.435 197.056 477.038 197.056Z" fill="#E6E6E6"/>
</g>
<g id="head">
<path id="Vector_61" d="M209.64 98.3299C225.97 98.3299 239.208 85.0919 239.208 68.7621C239.208 52.4323 225.97 39.1943 209.64 39.1943C193.31 39.1943 180.072 52.4323 180.072 68.7621C180.072 85.0919 193.31 98.3299 209.64 98.3299Z" fill="#FFB6B6"/>
<path id="Vector_62" d="M171.251 40.5448C166.684 46.2667 164.197 52.4545 164.197 56.1602C154.709 73.5024 168.278 88.3985 185.62 97.8869C192.537 101.691 200.524 103.084 208.321 101.844L209.046 98.7473L210.029 101.537C210.029 101.537 221.32 138.83 225.045 141.018C223.631 134.381 222.013 103.651 221.226 97.174C220.137 88.3582 223.934 75.2337 226.673 67.2524C228.371 62.3334 229.242 57.1671 229.252 51.9632V51.7356L231.919 60.3022L241.628 56.1602C239.822 45.7992 241.628 34.0371 219.972 35.0572C208.259 27.0019 197.945 25.7748 189.472 28.0595C188.379 26.369 182.074 29.5353 180.252 28.6451" fill="#2F2E41"/>
<path id="Vector_63" d="M178.372 42.406C173.602 43.826 169.152 39.836 165.832 36.056L167.012 37.456C159.202 42.956 154.532 51.916 151.502 60.986C148.472 70.046 146.782 79.5361 143.362 88.466C139.942 97.386 134.422 106.016 125.972 110.466C114.652 116.426 100.782 113.716 88.7424 109.416C88.5824 109.356 88.4324 109.306 88.2724 109.246C93.1488 100.137 96.1352 90.1373 97.0524 79.846C92.0995 89.5158 84.9564 97.8951 76.1924 104.316C68.3253 100.74 60.7606 96.5328 53.5724 91.736C48.9224 88.626 44.0224 84.606 43.4824 79.036C42.9324 73.506 47.0624 68.456 51.9324 65.796C56.8024 63.136 62.4024 62.236 67.7224 60.636C73.0324 59.046 78.4524 56.436 81.2424 51.636C87.6724 40.596 76.8524 25.026 83.7524 14.266C87.1524 8.97604 93.7524 6.85603 99.8724 5.38603C109.214 3.15167 118.695 1.55136 128.252 0.596036C136.642 -0.243963 145.312 -0.553961 153.292 2.14604C161.272 4.84604 168.512 11.116 170.222 19.376C174.882 21.826 179.812 24.536 182.312 29.186C184.812 33.826 183.422 40.906 178.372 42.406Z" fill="#2F2E41"/>
</g>
<path id="flover" d="M619.703 251.169C619.155 251.194 618.614 251.05 618.151 250.757C617.688 250.464 617.326 250.036 617.115 249.53C616.903 249.025 616.852 248.467 616.969 247.931C617.085 247.396 617.364 246.909 617.766 246.537L617.949 245.809C617.925 245.751 617.901 245.693 617.876 245.634C617.325 244.332 616.401 243.222 615.221 242.443C614.04 241.664 612.656 241.251 611.241 241.256C609.827 241.261 608.446 241.684 607.271 242.472C606.096 243.26 605.181 244.377 604.639 245.684C602.474 250.898 599.718 256.121 599.039 261.635C598.74 264.072 598.866 266.542 599.412 268.936C594.326 257.844 591.686 245.787 591.669 233.585C591.668 230.523 591.838 227.463 592.179 224.42C592.46 221.925 592.85 219.449 593.35 216.989C596.075 203.646 601.927 191.14 610.425 180.497C614.537 178.253 617.863 174.803 619.954 170.61C620.712 169.103 621.247 167.494 621.544 165.834C621.08 165.894 620.609 165.932 620.145 165.963C620 165.97 619.848 165.978 619.703 165.986L619.649 165.988C619.139 166.011 618.633 165.886 618.193 165.628C617.752 165.37 617.396 164.991 617.166 164.535C616.936 164.079 616.843 163.567 616.898 163.059C616.953 162.552 617.153 162.071 617.475 161.675C617.675 161.428 617.875 161.182 618.076 160.936C618.38 160.555 618.692 160.183 618.996 159.802C619.031 159.766 619.064 159.728 619.095 159.688C619.445 159.255 619.795 158.829 620.145 158.395C619.506 157.404 618.647 156.574 617.635 155.969C614.129 153.915 609.291 155.338 606.759 158.509C604.218 161.681 603.739 166.13 604.621 170.093C605.489 173.464 606.924 176.664 608.865 179.554C608.675 179.798 608.477 180.033 608.287 180.277C604.812 184.746 601.782 189.546 599.242 194.606C599.86 188.937 599.123 183.202 597.092 177.873C595.033 172.907 591.175 168.725 587.777 164.432C583.695 159.275 575.326 161.525 574.607 168.062C574.6 168.126 574.593 168.189 574.587 168.252C575.091 168.537 575.585 168.839 576.069 169.159C576.676 169.564 577.146 170.144 577.419 170.822C577.691 171.5 577.752 172.244 577.594 172.957C577.436 173.67 577.066 174.318 576.533 174.818C576 175.317 575.329 175.644 574.607 175.755L574.533 175.767C574.713 177.586 575.031 179.388 575.484 181.159C576.797 186.102 579.117 190.721 582.299 194.726C585.48 198.731 589.455 202.036 593.973 204.432C594.27 204.584 594.559 204.737 594.856 204.881C592.304 212.112 590.704 219.644 590.095 227.287C589.75 231.797 589.77 236.327 590.155 240.833L590.133 240.673C589.159 235.663 586.486 231.141 582.565 227.873C576.741 223.089 568.513 221.327 562.231 217.482C561.563 217.053 560.786 216.825 559.993 216.823C559.2 216.821 558.422 217.046 557.752 217.471C557.082 217.897 556.548 218.505 556.213 219.224C555.877 219.943 555.754 220.743 555.859 221.529C555.867 221.585 555.876 221.641 555.884 221.697C556.821 222.079 557.733 222.518 558.615 223.013C559.119 223.298 559.613 223.6 560.097 223.92C560.704 224.325 561.175 224.905 561.447 225.583C561.719 226.261 561.78 227.005 561.622 227.718C561.464 228.431 561.094 229.079 560.561 229.579C560.028 230.078 559.357 230.405 558.635 230.516L558.561 230.527C558.508 230.535 558.462 230.543 558.409 230.55C560.01 234.371 562.256 237.888 565.049 240.947C568.5 244.65 572.671 247.609 577.306 249.643C581.941 251.676 586.942 252.742 592.004 252.774H592.011C593.385 258.745 595.376 264.556 597.951 270.115H619.171C619.247 269.879 619.316 269.636 619.384 269.4C617.42 269.523 615.448 269.406 613.512 269.05C615.087 267.118 616.661 265.171 618.236 263.239C618.271 263.203 618.304 263.165 618.334 263.125C619.133 262.137 619.939 261.156 620.738 260.167L620.738 260.166C620.781 257.135 620.433 254.111 619.703 251.169L619.703 251.169ZM595.403 203.368L595.414 203.353L595.403 203.383V203.368ZM590.703 245.739L590.52 245.328C590.528 245.032 590.528 244.735 590.52 244.431C590.52 244.347 590.505 244.263 590.505 244.18C590.574 244.705 590.635 245.229 590.711 245.754L590.703 245.739Z" fill="#2F2E41"/>
</g>
</svg>
