<svg width="972" height="629" viewBox="0 0 972 629" fill="none" xmlns="http://www.w3.org/2000/svg">
<g id="undraw_dev_focus_re_6iwt (1) 1" clip-path="url(#clip0_48_3)">
<g id="girl_body">
<path id="Vector" d="M417.741 231.695L344.052 235.008C344.052 235.008 350.202 273.116 310.337 276.74C270.471 280.364 234.23 269.492 219.733 296.673C205.236 323.854 211.485 420.639 211.485 420.639C211.485 420.639 238.666 518.491 260.411 532.988C282.156 547.485 472.424 527.552 472.424 527.552L552.052 427.008L549.355 349.468C547.947 308.977 510.978 278.577 471.162 286.07C470.38 286.217 469.592 286.376 468.8 286.546C468.8 286.546 460.052 280.008 436.052 268.008C421.375 260.67 417.741 231.695 417.741 231.695Z" fill="#CACACA"/>
<path id="Vector_2" d="M257.786 274.928C257.786 274.928 275.3 306.706 268.052 352.008C260.803 397.31 291.216 493.122 291.216 493.122L312.961 487.686C312.961 487.686 298.464 393.458 302.088 371.713C305.712 349.968 306.712 285.801 288.592 274.928C270.471 264.056 257.786 274.928 257.786 274.928Z" fill="#2F2E41"/>
<path id="Vector_3" d="M467.525 291.59L475.142 492.216L489.638 501.277C489.638 501.277 510.477 281.109 499.605 281.109H477.482C476.173 281.109 474.876 281.367 473.667 281.868C472.457 282.369 471.358 283.104 470.432 284.03C469.506 284.955 468.772 286.055 468.271 287.264C467.77 288.474 467.512 289.77 467.512 291.08C467.512 291.25 467.516 291.42 467.525 291.59Z" fill="#2F2E41"/>
</g>
<g id="website">
<path id="Vector_4" d="M782.462 527.408V537.408C782.458 538.203 782.14 538.963 781.579 539.525C781.017 540.087 780.256 540.404 779.462 540.408H774.462C774.33 540.408 774.2 540.433 774.079 540.483C773.957 540.533 773.847 540.607 773.754 540.7C773.661 540.793 773.587 540.903 773.537 541.025C773.487 541.147 773.461 541.277 773.462 541.408V623.408C773.458 624.203 773.14 624.963 772.579 625.525C772.017 626.087 771.256 626.404 770.462 626.408H709.462C708.666 626.408 707.904 626.091 707.341 625.529C706.779 624.966 706.463 624.204 706.462 623.408V541.408C706.461 541.143 706.356 540.889 706.168 540.702C705.981 540.515 705.727 540.409 705.462 540.408H699.462C698.666 540.408 697.904 540.091 697.341 539.529C696.779 538.966 696.463 538.204 696.462 537.408V527.408C696.461 527.014 696.539 526.624 696.689 526.259C696.84 525.895 697.061 525.564 697.339 525.286C697.618 525.007 697.949 524.786 698.313 524.635C698.677 524.485 699.068 524.408 699.462 524.408H779.462C780.257 524.411 781.019 524.727 781.581 525.289C782.143 525.852 782.46 526.613 782.462 527.408Z" fill="#E8E8E8"/>
<path id="Vector_5" d="M773.552 542.508H706.552V545.508H773.552V542.508Z" fill="#E0DEDE"/>
<path id="Vector_6" d="M773.462 586.653C751.042 595.931 728.378 596.033 705.462 586.653V565.518C727.523 558.108 751.401 558.108 773.462 565.518V586.653Z" fill="#C7C7C7"/>
<path id="Vector_7" d="M301.182 488.592C306.186 488.592 310.243 484.536 310.243 479.532C310.243 474.528 306.186 470.471 301.182 470.471C296.179 470.471 292.122 474.528 292.122 479.532C292.122 484.536 296.179 488.592 301.182 488.592Z" fill="#A9D4DC"/>
<path id="Vector_8" d="M482.389 497.652C487.393 497.652 491.45 493.596 491.45 488.592C491.45 483.588 487.393 479.532 482.389 479.532C477.386 479.532 473.329 483.588 473.329 488.592C473.329 493.596 477.386 497.652 482.389 497.652Z" fill="#A9D4DC"/>
<path id="Vector_9" d="M603.152 608.446V614.516C603.156 616.182 602.847 617.834 602.242 619.386C601.974 620.078 601.649 620.747 601.272 621.386C600.08 623.387 598.389 625.043 596.364 626.193C594.34 627.343 592.051 627.947 589.722 627.946H143.172C140.844 627.947 138.555 627.343 136.53 626.193C134.505 625.043 132.814 623.387 131.622 621.386C131.245 620.747 130.921 620.078 130.652 619.386C130.047 617.834 129.739 616.182 129.742 614.516V608.446C129.742 606.683 130.089 604.937 130.763 603.308C131.437 601.679 132.426 600.198 133.672 598.951C134.919 597.704 136.398 596.715 138.027 596.04C139.656 595.364 141.402 595.017 143.165 595.016H168.912V592.186C168.912 592.113 168.926 592.04 168.954 591.972C168.982 591.904 169.023 591.843 169.075 591.791C169.127 591.739 169.189 591.697 169.256 591.669C169.324 591.641 169.397 591.626 169.47 591.626H182.902C183.05 591.626 183.193 591.685 183.298 591.789C183.403 591.894 183.462 592.036 183.462 592.184V595.016H191.852V592.186C191.852 592.113 191.866 592.04 191.894 591.972C191.922 591.904 191.963 591.843 192.015 591.791C192.067 591.739 192.129 591.697 192.196 591.669C192.264 591.641 192.337 591.626 192.41 591.626H205.842C205.99 591.626 206.133 591.685 206.238 591.789C206.343 591.894 206.402 592.036 206.402 592.184V595.016H214.802V592.186C214.802 592.113 214.816 592.04 214.844 591.972C214.872 591.904 214.913 591.843 214.965 591.791C215.017 591.739 215.079 591.697 215.146 591.669C215.214 591.641 215.287 591.626 215.36 591.626H228.792C228.94 591.626 229.083 591.685 229.188 591.789C229.293 591.894 229.352 592.036 229.352 592.184V595.016H237.742V592.186C237.742 592.113 237.756 592.04 237.784 591.972C237.812 591.904 237.853 591.843 237.905 591.791C237.957 591.739 238.019 591.697 238.086 591.669C238.154 591.641 238.227 591.626 238.3 591.626H251.732C251.88 591.626 252.023 591.685 252.128 591.789C252.233 591.894 252.292 592.036 252.292 592.184V595.016H260.682V592.186C260.682 592.113 260.696 592.04 260.724 591.972C260.752 591.904 260.793 591.843 260.845 591.791C260.897 591.739 260.959 591.697 261.026 591.669C261.094 591.641 261.167 591.626 261.24 591.626H274.672C274.82 591.626 274.963 591.685 275.068 591.789C275.173 591.894 275.232 592.036 275.232 592.184V595.016H283.632V592.186C283.632 592.113 283.646 592.04 283.674 591.972C283.702 591.904 283.743 591.843 283.795 591.791C283.847 591.739 283.909 591.697 283.976 591.669C284.044 591.641 284.117 591.626 284.19 591.626H297.622C297.77 591.626 297.913 591.685 298.018 591.789C298.123 591.894 298.182 592.036 298.182 592.185V595.016H306.572V592.186C306.572 592.113 306.586 592.04 306.614 591.972C306.642 591.904 306.683 591.843 306.735 591.791C306.787 591.739 306.849 591.697 306.916 591.669C306.984 591.641 307.057 591.626 307.13 591.626H412.332C412.406 591.626 412.478 591.641 412.546 591.669C412.614 591.697 412.676 591.738 412.728 591.789C412.78 591.841 412.821 591.903 412.849 591.971C412.877 592.038 412.892 592.111 412.892 592.185V595.016H421.292V592.186C421.292 592.113 421.306 592.04 421.334 591.972C421.362 591.904 421.403 591.843 421.455 591.791C421.507 591.739 421.569 591.697 421.637 591.669C421.704 591.641 421.777 591.626 421.85 591.626H435.282C435.43 591.628 435.572 591.687 435.677 591.792C435.781 591.897 435.841 592.038 435.842 592.186V595.016H444.232V592.186C444.232 592.113 444.246 592.04 444.274 591.972C444.302 591.904 444.343 591.843 444.395 591.791C444.447 591.739 444.509 591.697 444.576 591.669C444.644 591.641 444.717 591.626 444.79 591.626H458.222C458.296 591.626 458.368 591.641 458.436 591.669C458.504 591.697 458.566 591.738 458.618 591.789C458.67 591.841 458.711 591.903 458.739 591.971C458.767 592.038 458.782 592.111 458.782 592.185V595.016H467.172V592.186C467.172 592.113 467.186 592.04 467.214 591.972C467.242 591.904 467.283 591.843 467.335 591.791C467.387 591.739 467.449 591.698 467.516 591.669C467.584 591.641 467.657 591.627 467.73 591.626H481.162C481.236 591.626 481.308 591.641 481.376 591.669C481.444 591.697 481.506 591.738 481.558 591.789C481.61 591.841 481.651 591.903 481.679 591.971C481.707 592.038 481.722 592.111 481.722 592.185V595.016H490.122V592.186C490.122 592.113 490.136 592.04 490.164 591.972C490.192 591.904 490.233 591.843 490.285 591.791C490.337 591.739 490.399 591.698 490.466 591.669C490.534 591.641 490.607 591.627 490.68 591.626H504.112C504.259 591.628 504.4 591.688 504.503 591.793C504.606 591.898 504.663 592.039 504.662 592.186V595.016H513.062V592.186C513.062 592.113 513.076 592.04 513.104 591.972C513.132 591.904 513.173 591.843 513.225 591.791C513.277 591.739 513.339 591.698 513.406 591.669C513.474 591.641 513.547 591.627 513.62 591.626H527.052C527.126 591.626 527.198 591.641 527.266 591.669C527.334 591.697 527.396 591.738 527.448 591.789C527.5 591.841 527.541 591.903 527.569 591.971C527.597 592.038 527.612 592.111 527.612 592.185V595.016H536.002V592.186C536.002 592.113 536.016 592.04 536.044 591.972C536.072 591.905 536.113 591.843 536.165 591.791C536.217 591.739 536.279 591.698 536.346 591.669C536.414 591.641 536.487 591.627 536.56 591.626H549.992C550.066 591.626 550.138 591.641 550.206 591.669C550.274 591.697 550.336 591.738 550.388 591.789C550.44 591.841 550.481 591.903 550.509 591.971C550.537 592.038 550.552 592.111 550.552 592.185V595.016H589.722C593.283 595.015 596.698 596.429 599.217 598.946C601.736 601.464 603.151 604.878 603.152 608.439L603.152 608.446Z" fill="#3F3D56"/>
<path id="Vector_10" d="M971.052 626.381H0V628.381H971.052V626.381Z" fill="#3F3D56"/>
<path id="Vector_11" d="M567.194 352.812H158.15C156.672 352.812 155.208 353.103 153.842 353.669C152.476 354.235 151.235 355.064 150.189 356.11C149.144 357.155 148.314 358.396 147.749 359.762C147.183 361.128 146.892 362.592 146.892 364.071V591.982C146.892 594.968 148.078 597.832 150.189 599.943C152.301 602.055 155.164 603.241 158.15 603.241H567.194C570.18 603.241 573.043 602.055 575.155 599.943C577.266 597.832 578.452 594.968 578.452 591.982V364.071C578.452 361.085 577.266 358.221 575.155 356.11C573.043 353.998 570.18 352.812 567.194 352.812Z" fill="#3F3D56"/>
<path id="Vector_12" d="M517.763 267.219L643.969 140.016H703.552V138.016H643.134L642.841 138.313L516.341 265.813L517.763 267.219Z" fill="#3F3D56"/>
<path id="Vector_13" d="M758.507 109.061H727.552V78.1055H758.507V109.061ZM729.552 107.061H756.507V80.1055H729.552L729.552 107.061Z" fill="#3F3D56"/>
<path id="Vector_14" d="M758.507 152.494H727.552V121.539H758.507V152.494ZM729.552 150.494H756.507V123.539H729.552L729.552 150.494Z" fill="#3F3D56"/>
<path id="Vector_15" d="M758.955 195.955H728V165H758.955V195.955ZM730 193.955H756.955V167H730L730 193.955Z" fill="#3F3D56"/>
</g>
<path id="light" d="M363 457.381C376.807 457.381 388 446.188 388 432.381C388 418.574 376.807 407.381 363 407.381C349.193 407.381 338 418.574 338 432.381C338 446.188 349.193 457.381 363 457.381Z" fill="#A9D4DC"/>
<g id="steam">
<path id="steam2" d="M733.457 500.406C730.799 482.498 730.096 464.354 731.363 446.294L733.457 416.406C721.915 439.371 724.524 469.598 733.457 500.406V500.406Z" fill="#C9C9C9"/>
<path id="steam1" d="M742.457 505.406C741.177 494.72 740.84 483.942 741.449 473.197L742.457 455.406C736.904 469.076 738.159 487.068 742.457 505.406Z" fill="#C9C9C9"/>
</g>
<g id="head_girl">
<path id="Vector_16" d="M451.484 250.381C471.584 250.381 487.879 234.086 487.879 213.986C487.879 193.885 471.584 177.59 451.484 177.59C431.383 177.59 415.088 193.885 415.088 213.986C415.088 234.086 431.383 250.381 451.484 250.381Z" fill="#2F2E41"/>
<path id="Vector_17" d="M461.623 178.592C467.922 178.593 474.113 180.228 479.59 183.338C485.068 186.448 489.644 190.926 492.873 196.334C496.102 201.742 497.872 207.896 498.01 214.193C498.149 220.49 496.65 226.716 493.662 232.261C496.818 228.313 499.116 223.751 500.411 218.865C501.706 213.98 501.969 208.879 501.183 203.886C500.397 198.893 498.58 194.119 495.848 189.868C493.115 185.616 489.526 181.981 485.311 179.193C481.095 176.405 476.345 174.526 471.363 173.675C466.382 172.824 461.277 173.021 456.375 174.252C451.474 175.483 446.882 177.721 442.893 180.825C438.904 183.929 435.606 187.829 433.208 192.278C436.61 188.007 440.932 184.558 445.852 182.188C450.771 179.819 456.162 178.589 461.623 178.592Z" fill="#2F2E41"/>
<path id="Vector_18" d="M383.472 213.909C442.518 213.909 490.385 166.042 490.385 106.996C490.385 47.9499 442.518 0.0834961 383.472 0.0834961C324.426 0.0834961 276.56 47.9499 276.56 106.996C276.56 166.042 324.426 213.909 383.472 213.909Z" fill="#2F2E41"/>
<path id="Vector_19" d="M299.564 40.6619C317.986 19.944 343.736 7.19379 371.381 5.10227C399.026 3.01075 426.402 11.7416 447.731 29.452C446.857 28.621 445.992 27.7832 445.083 26.9756C423.889 8.15086 396.087 -1.48642 367.789 0.182746C339.491 1.85192 313.015 14.6909 294.181 35.8767C275.347 57.0625 265.698 84.8607 267.355 113.159C269.012 141.458 281.839 167.94 303.017 186.783C303.926 187.59 304.859 188.351 305.787 189.122C285.7 170.014 273.822 143.849 272.661 116.15C271.5 88.4508 281.146 61.3839 299.564 40.6619Z" fill="#2F2E41"/>
<path id="Vector_20" d="M382.567 213.002C420.597 213.002 451.426 182.173 451.426 144.144C451.426 106.114 420.597 75.2847 382.567 75.2847C344.537 75.2847 313.708 106.114 313.708 144.144C313.708 182.173 344.537 213.002 382.567 213.002Z" fill="#FFB8B8"/>
<path id="Vector_21" d="M323.674 58.0692V126.928H339.621L359.916 105.183L357.198 126.928H427.687L423.338 105.183L432.036 126.928H443.271V58.0692H323.674Z" fill="#2F2E41"/>
<path id="Vector_22" d="M312.801 139.613C315.804 139.613 318.238 135.151 318.238 129.647C318.238 124.143 315.804 119.68 312.801 119.68C309.799 119.68 307.365 124.143 307.365 129.647C307.365 135.151 309.799 139.613 312.801 139.613Z" fill="#FFB8B8"/>
<path id="Vector_23" d="M452.332 139.613C455.334 139.613 457.768 135.151 457.768 129.647C457.768 124.143 455.334 119.68 452.332 119.68C449.329 119.68 446.896 124.143 446.896 129.647C446.896 135.151 449.329 139.613 452.332 139.613Z" fill="#FFB8B8"/>
</g>
<g id="lines">
<path id="Vector_24" d="M923 88H776V101H923V88Z" fill="#A9D4DC"/>
<path id="Vector_25" d="M922.552 131.225H776.328V144.255H922.552V131.225Z" fill="#A9D4DC"/>
<path id="Vector_26" d="M922.552 174.658H776.328V187.688H922.552V174.658Z" fill="#A9D4DC"/>
</g>
<g id="check">
<path id="check3" d="M731 180L740 189L755 171" stroke="#3F3D56" stroke-width="2" stroke-linecap="round" stroke-linejoin="round"/>
<path id="check2" d="M731 137L740 146L755 128" stroke="#3F3D56" stroke-width="2" stroke-linecap="round" stroke-linejoin="round"/>
<path id="check1" d="M731 94L740 103L755 85" stroke="#3F3D56" stroke-width="2" stroke-linecap="round" stroke-linejoin="round"/>
</g>
</g>
<defs>
<clipPath id="clip0_48_3">
<rect width="971.052" height="628.381" fill="white"/>
</clipPath>
</defs>
</svg>
